HIERARCHY
ROOT Hips
{
  OFFSET 13.6774 106.653 -34.4427
  CHANNELS 6 Xposition Yposition Zposition Zrotation Xrotation Yrotation
  JOINT ToSpine
  {
    OFFSET -2.69724 7.43032 -0.144315
    CHANNELS 3 Zrotation Xrotation Yrotation
    JOINT Spine
    {
      OFFSET -0.0310711 10.7595 1.96963
      CHANNELS 3 Zrotation Xrotation Yrotation
      JOINT Spine1
      {
        OFFSET 19.9056 3.91189 0.764692
        CHANNELS 3 Zrotation Xrotation Yrotation
        JOINT Neck
        {
          OFFSET 25.9749 7.03908 -0.130764
          CHANNELS 3 Zrotation Xrotation Yrotation
          JOINT Head
          {
            OFFSET 9.52751 0.295786 -0.907742
            CHANNELS 3 Zrotation Xrotation Yrotation
            End Site
            {
              OFFSET 16.4037 0.713936 2.7358
            }
          }
        }
        JOINT LeftShoulder
        {
          OFFSET 17.7449 4.33886 11.7777
          CHANNELS 3 Zrotation Xrotation Yrotation
          JOINT LeftArm
          {
            OFFSET 0.911315 1.27913 9.80584
            CHANNELS 3 Zrotation Xrotation Yrotation
            JOINT LeftForeArm
            {
              OFFSET 28.6126 1.18197 -3.53199
              CHANNELS 3 Zrotation Xrotation Yrotation
              JOINT LeftHand
              {
                OFFSET 27.5088 0.0218783 0.327423
                CHANNELS 3 Zrotation Xrotation Yrotation
                End Site
                {
                  OFFSET 18.6038 -0.000155887 0.382096
                }
              }
            }
          }
        }
        JOINT RightShoulder
        {
          OFFSET 17.1009 2.89543 -12.2328
          CHANNELS 3 Zrotation Xrotation Yrotation
          JOINT RightArm
          {
            OFFSET 1.4228 0.178766 -10.211
            CHANNELS 3 Zrotation Xrotation Yrotation
            JOINT RightForeArm
            {
              OFFSET 28.733 1.87905 2.64907
              CHANNELS 3 Zrotation Xrotation Yrotation
              JOINT RightHand
              {
                OFFSET 27.4588 0.290562 -0.101845
                CHANNELS 3 Zrotation Xrotation Yrotation
                End Site
                {
                  OFFSET 17.8396 -0.255518 -0.000602873
                }
              }
            }
          }
        }
      }
    }
  }
  JOINT LeftUpLeg
  {
    OFFSET -5.61296 -2.22332 -10.2353
    CHANNELS 3 Zrotation Xrotation Yrotation
    JOINT LeftLeg
    {
      OFFSET 2.56703 -44.7417 -7.93097
      CHANNELS 3 Zrotation Xrotation Yrotation
      JOINT LeftFoot
      {
        OFFSET 3.16933 -46.5642 -3.96578
        CHANNELS 3 Zrotation Xrotation Yrotation
        JOINT LeftToeBase
        {
          OFFSET 0.346054 -6.02161 12.8035
          CHANNELS 3 Zrotation Xrotation Yrotation
          End Site
          {
            OFFSET 0.134235 -1.35082 5.13018
          }
        }
      }
    }
  }
  JOINT RightUpLeg
  {
    OFFSET -5.7928 -1.72406 10.6446
    CHANNELS 3 Zrotation Xrotation Yrotation
    JOINT RightLeg
    {
      OFFSET -2.57161 -44.7178 -7.85259
      CHANNELS 3 Zrotation Xrotation Yrotation
      JOINT RightFoot
      {
        OFFSET -3.10148 -46.5936 -4.03391
        CHANNELS 3 Zrotation Xrotation Yrotation
        JOINT RightToeBase
        {
          OFFSET -0.0828122 -6.13587 12.8035
          CHANNELS 3 Zrotation Xrotation Yrotation
          End Site
          {
            OFFSET -0.131328 -1.35082 5.13018
          }
        }
      }
    }
  }
}
MOTION
Frames: 10
Frame Time: 0.03333333333333333
0.0000 93.1000 0.0000 73.1240 -34.0521 -3.2330 -70.9941 0.2356 88.0130 82.2776 71.9947 -0.2828 4.3154 22.2540 -1.3974 -112.9941 21.4677 161.1580 177.3493 65.1165 -132.1352 0.6201 -9.9420 -14.9726 -44.0735 25.9131 -123.7783 30.0962 -6.6863 -100.2057 0.1413 0.1943 0.2479 -0.0033 0.0080 -4.8868 -130.9002 4.5972 90.7791 46.2585 -3.8595 85.8505 0.1601 -0.0337 -0.2331 -47.8873 18.1054 95.9400 -5.0040 55.4845 -7.9786 0.6668 -21.3359 -1.8649 3.7013 -12.9332 18.5231 -44.9395 -12.1254 79.3064 0.8959 27.0385 1.1414 -2.9316 8.1953 -0.6786 0.2780 -8.4371 1.3977 
0.0000 93.1000 0.0000 71.9710 -34.0268 -4.1902 -70.9925 0.3413 88.0122 86.1483 71.5408 -1.8328 3.7250 22.5739 -2.3740 -112.3346 21.2009 161.2308 177.6287 64.9855 -131.7276 0.7045 -9.8313 -14.1195 -44.1772 25.8963 -124.8560 29.7917 -6.2664 -100.2757 0.0705 0.2817 0.1790 0.0286 0.4940 -3.7656 -133.3709 1.7049 90.5843 42.0563 -3.2328 86.0097 0.0043 -0.0887 -0.2071 -48.9100 18.1159 97.0555 -5.2316 54.9500 -7.8610 0.3158 -21.3249 -2.0349 4.1455 -13.3625 19.3971 -43.7328 -12.4553 79.6881 0.9994 27.9360 5.1069 -4.5503 8.6790 -0.4668 0.4572 -11.0837 1.7156 
0.0000 93.1000 0.0000 72.1856 -34.0012 -4.0766 -70.9911 0.4051 88.0101 86.7506 71.1823 -1.2006 3.6812 22.7608 -2.9654 -111.9603 21.3178 160.9487 178.4530 65.2017 -133.6956 0.7870 -9.8247 -13.9017 -46.2432 25.8733 -126.8763 28.3241 -5.9033 -99.2849 -0.0007 0.3455 0.0651 0.1386 0.7018 -3.6287 -136.5605 -3.3988 92.7686 33.8809 -2.9976 87.1557 -0.0019 -0.1835 -0.1553 -49.1385 17.7132 97.2324 -4.9611 53.5360 -7.8011 0.3449 -21.6980 -2.2990 4.0135 -12.9942 18.1334 -42.7705 -13.2135 80.6476 0.6077 27.4895 6.9171 -4.8046 9.2293 -0.3396 1.0383 -10.7266 -0.3222 
0.0000 93.1000 0.0000 72.3286 -33.9178 -5.2163 -70.9927 0.3596 88.0079 81.2307 71.3213 1.0791 4.2967 22.2221 -2.6475 -112.5391 21.9242 160.2462 177.5998 65.9690 -133.2949 0.9660 -10.6187 -15.0776 -49.7524 24.9641 -129.6419 24.7742 -5.0845 -99.1625 0.0145 0.2936 -0.0362 0.2022 0.8125 -2.1812 -139.8003 -7.6801 92.5882 19.2946 -1.7712 89.3524 -0.1762 -0.1491 -0.0409 -50.1166 17.0924 96.9292 -5.1261 51.9749 -8.1647 -0.2775 -20.9235 -2.3704 4.4874 -13.3892 18.2998 -43.1452 -14.8281 80.8334 0.0053 25.4813 3.7899 -5.1770 10.4869 -0.3260 0.6015 -5.5541 0.1777 
0.0000 93.1000 0.0000 70.9986 -33.0053 -4.9216 -70.9990 -0.4729 88.0059 79.1946 70.9286 4.0753 4.4788 21.9412 -3.2549 -112.2201 23.1323 159.5589 176.6264 67.6212 -133.9372 0.7102 -11.7502 -15.7014 -51.9979 23.8452 -134.7172 20.9740 -3.7312 -98.0893 -0.1865 -0.4459 0.1371 -0.1496 1.5838 0.5395 -140.5725 -12.5227 90.9852 2.9475 -0.4506 93.6501 0.2534 0.4868 0.5684 -50.3653 16.6356 97.1972 -4.6294 49.9983 -8.4517 -0.5875 -19.8924 -1.9850 4.9899 -13.7191 17.0281 -43.9662 -16.2442 80.2185 0.4774 22.7294 0.9722 -4.8279 12.6335 -0.9052 0.0655 -0.7995 -1.3224 
0.0000 93.1000 0.0000 70.9547 -32.4436 -5.7612 -70.9957 -0.2204 88.0048 76.0905 70.3232 7.7075 4.9997 21.5397 -3.0186 -114.2130 25.1076 158.6662 175.6525 69.0605 -135.5977 0.6754 -12.3437 -16.1027 -55.7037 24.2645 -139.8665 18.0010 -2.5991 -96.4397 -0.2395 -0.2937 0.0084 -0.3231 3.0792 5.1091 -138.1611 -16.9855 90.5049 -7.2863 -1.0323 98.2225 0.0070 0.3234 0.5741 -51.1767 16.3951 96.5501 -3.9722 48.1566 -8.8147 -1.2019 -18.8606 -2.0640 5.2454 -13.4009 15.9072 -44.7622 -17.2126 79.4366 0.7433 20.5930 1.7938 -4.3005 15.8462 -0.7732 -0.5787 -3.6408 1.4343 
0.0000 93.1000 0.0000 70.3438 -31.1711 -6.9476 -70.9981 -0.2228 88.0045 71.0941 70.1915 11.3622 5.7940 20.8944 -1.8754 -116.1890 26.4075 159.0038 174.7447 70.1767 -136.3036 0.4953 -12.6270 -17.6342 -58.1781 24.1981 -143.6974 14.7735 -2.6396 -96.2628 -0.1955 -0.2446 0.0881 -0.6557 4.1648 11.1325 -135.2613 -17.3440 91.6187 -4.9883 -0.8012 102.1852 0.1582 0.2457 0.4604 -52.2534 15.9615 96.3470 -4.0835 45.4017 -8.9509 -2.4813 -16.6910 -1.6118 5.2373 -13.7761 15.7754 -44.8056 -17.3258 78.8941 -0.0554 21.1447 4.0048 -5.1185 16.5660 -0.4740 0.5376 -11.4743 2.8081 
0.0000 93.1000 0.0000 70.4506 -30.4095 -6.6907 -70.9961 0.0070 88.0038 66.1360 69.9428 14.0770 6.5427 20.2995 -0.1602 -119.2320 28.5007 158.6238 172.9468 71.4418 -137.4752 0.6037 -13.2480 -19.0349 -60.5171 25.7418 -146.8258 13.4340 -2.5275 -96.0142 -0.0293 -0.0435 -0.0646 -0.8982 4.8990 17.9680 -131.0081 -17.6711 94.1899 2.4997 0.8502 105.8414 0.0608 -0.0159 0.3142 -53.1352 16.4705 96.0548 -3.8254 43.0281 -7.9929 -2.8801 -14.3088 -1.6042 5.4096 -13.9032 14.0816 -44.7807 -16.8570 78.9309 -0.0560 22.1338 3.9274 -5.6347 15.2654 0.0585 1.2279 -15.6867 4.1954 
0.0000 93.1000 0.0000 69.5461 -29.1069 -7.1059 -70.9961 0.2194 88.0016 66.7853 70.0944 13.8401 6.3994 19.7951 1.2199 -122.1704 30.2546 159.0625 173.0158 73.1786 -139.1919 0.2490 -13.7953 -19.4186 -61.1954 27.9946 -149.9563 14.5664 -2.2065 -95.9354 -0.1124 0.1457 -0.1456 -1.3772 5.1389 26.0236 -126.0572 -15.7273 97.0002 8.5868 2.5610 106.2614 0.0130 -0.2123 0.0977 -54.0261 17.5105 94.9514 -3.2150 41.0521 -8.0391 -3.1146 -10.9389 -1.1988 5.6345 -15.2524 13.2403 -45.7370 -16.6919 78.4790 0.8212 22.2068 2.7981 -4.8639 13.5879 -0.0302 1.4805 -14.2887 3.2994 
0.0000 93.1000 0.0000 69.7047 -28.1312 -6.9862 -70.9937 0.3662 88.0000 68.1471 70.1466 13.0092 6.4278 19.1972 2.2194 -124.2906 31.8967 158.8244 169.8304 74.6079 -139.3884 0.8253 -13.7912 -19.6927 -62.1809 29.7156 -151.8337 15.5684 -1.8743 -96.9022 0.0653 0.1536 -0.2273 -1.5740 5.4906 34.1107 -123.9481 -11.9462 98.0008 12.0865 3.3838 105.1966 -0.0191 -0.2675 0.1512 -53.8504 18.3389 95.1224 -2.9161 39.4697 -8.2743 -3.6325 -8.6314 -1.2952 5.3317 -15.1544 13.1476 -45.8581 -16.0908 78.4179 1.2015 22.3318 -3.2135 -5.2410 10.1258 0.5470 0.8463 -13.1617 7.2061 
